HIERARCHY
ROOT Hips
{
	OFFSET 0.00000 0.00000 0.00000
	CHANNELS 6 Xposition Yposition Zposition Zrotation Yrotation Xrotation 
	JOINT RightUpLegDummy
	{
		OFFSET 0 0 0
		CHANNELS 3 Zrotation Yrotation Xrotation
		JOINT RightUpLeg
		{
			OFFSET -3.52197 -3.41223 0.04002
			CHANNELS 3 Zrotation Yrotation Xrotation
			JOINT RightLeg
			{
				OFFSET 0.00006 -17.42390 1.60435
				CHANNELS 3 Zrotation Yrotation Xrotation
				JOINT RightFoot
				{
					OFFSET 0.06154 -16.50078 -1.63900
					CHANNELS 3 Zrotation Yrotation Xrotation
					JOINT RightToes
					{
						OFFSET 0.00298 -1.73825 3.34613
						CHANNELS 3 Zrotation Yrotation Xrotation
						End Site
						{
							OFFSET 0.00480 -0.05416 3.85043
						}
					}
				}
			}
		}
	}
	JOINT SpineDummy
	{
		OFFSET 0 0 0
		CHANNELS 3 Zrotation Yrotation Xrotation
		JOINT Spine
		{
			OFFSET 0.00000 4.68130 0.00000
			CHANNELS 3 Zrotation Yrotation Xrotation
			JOINT Spine1
			{
				OFFSET -0.00000 10.10138 0.05002
				CHANNELS 3 Zrotation Yrotation Xrotation
				JOINT HEadDummy
				{
					OFFSET 0 0 0
					CHANNELS 3 Zrotation Yrotation Xrotation
					JOINT Head
					{
						OFFSET -0.00000 3.43865 0.00438
						CHANNELS 3 Zrotation Yrotation Xrotation
						End Site
						{
							OFFSET -0.11417 5.02924 0.98962
						}
					}
				}
				JOINT LeftShoulder1Dummy
				{
					OFFSET 0 0 0
					CHANNELS 3 Zrotation Yrotation Xrotation
					JOINT LeftShoulder1
					{
						OFFSET 3.53937 -0.14262 -0.08662
						CHANNELS 3 Zrotation Yrotation Xrotation
						JOINT LeftArm
						{
							OFFSET 4.04833 -0.00133 0.12681
							CHANNELS 3 Zrotation Yrotation Xrotation
							JOINT LeftForeArm
							{
								OFFSET 10.33880 -0.01036 -0.55515
								CHANNELS 3 Zrotation Yrotation Xrotation
								JOINT LeftHand
								{
									OFFSET 8.69677 0.07543 0.40060
									CHANNELS 3 Zrotation Yrotation Xrotation
									End Site
									{
										OFFSET 5.28377 -0.21905 0.59205
									}
								}
							}
						}
					}
				}
				JOINT RightShoulderDummy
				{
					OFFSET 0 0 0
					CHANNELS 3 Zrotation Yrotation Xrotation
					JOINT RightShoulder
					{
						OFFSET -3.53937 -0.14262 -0.08660
						CHANNELS 3 Zrotation Yrotation Xrotation
						JOINT RightArm
						{
							OFFSET -4.04833 -0.00133 0.12683
							CHANNELS 3 Zrotation Yrotation Xrotation
							JOINT RightForeArm
							{
								OFFSET -10.37987 -0.01039 -0.55511
								CHANNELS 3 Zrotation Yrotation Xrotation
								JOINT RightHand
								{
									OFFSET -8.67398 0.07538 0.40058
									CHANNELS 3 Zrotation Yrotation Xrotation
									End Site
									{
										OFFSET -5.24810 -0.21916 0.59204
									}
								}
							}
						}
					}
				}
			}
		}
	}
	JOINT LeftUpLegDummy
	{
		OFFSET 0 0 0
		CHANNELS 3 Zrotation Yrotation Xrotation
		JOINT LeftUpLeg
		{
			OFFSET 3.52197 -3.41223 0.04002
			CHANNELS 3 Zrotation Yrotation Xrotation
			JOINT LeftLeg
			{
				OFFSET -0.00012 -17.42399 1.60337
				CHANNELS 3 Zrotation Yrotation Xrotation
				JOINT LeftFoot
				{
					OFFSET -0.09972 -16.50070 -1.63802
					CHANNELS 3 Zrotation Yrotation Xrotation
					JOINT LeftToes
					{
						OFFSET -0.01575 -1.73823 3.34611
						CHANNELS 3 Zrotation Yrotation Xrotation
						End Site
						{
							OFFSET 0.03150 -0.01868 3.85031
						}
					}
				}
			}
		}
	}
}
MOTION
Frames: 7
Frame Time: 0.033333
-3.0419 38.5438 8.2050 179.9570 21.6126 -176.6100 0.0000 0.0000 0.0000 -4.0866 -0.6354 -14.1492 -4.2700 -6.3548 26.8585 13.5925 0.1348 -12.8798 0.0000 0.0000 -0.0000 0.0000 0.0000 0.0000 -0.0752 -0.1396 10.3239 0.0372 -0.0341 21.7102 0.0000 0.0000 0.0000 -10.8044 21.7560 -19.0547 0.0000 0.0000 0.0000 -19.7667 -2.2475 1.5095 -58.7658 -1.8467 20.8744 -0.6193 -80.5627 8.1241 28.9468 -5.1273 -2.6303 0.0000 0.0000 0.0000 12.8971 0.0774 0.7143 61.7738 9.2228 22.6231 179.3771 71.3974 -175.6431 -18.6889 6.2127 -1.8327 0.0000 0.0000 0.0000 8.1314 -3.5607 -21.0738 4.7794 4.6646 37.6207 -6.6121 0.0860 -10.9453 0.0000 0.0000 0.0000
-3.2238 38.7478 8.0078 -179.4230 22.6298 -175.6580 0.0000 0.0000 0.0000 -3.9352 -0.0542 -13.6552 -3.7938 -6.2457 24.1748 13.9710 -0.0355 -11.3986 0.0000 0.0000 -0.0000 0.0000 0.0000 0.0000 0.1122 0.2018 9.3023 0.0481 0.3526 21.2375 0.0000 0.0000 0.0000 -10.5153 21.9659 -18.0786 0.0000 0.0000 0.0000 -19.1497 -1.8565 1.3762 -59.9533 0.6092 23.1715 -0.4793 -82.1607 8.7497 28.2661 -5.0991 -2.5582 0.0000 0.0000 0.0000 12.9753 0.0201 0.7054 61.0786 7.2528 22.8601 179.3872 70.9279 -175.6659 -18.3597 6.1016 -1.7821 0.0000 0.0000 0.0000 8.4601 -3.0852 -19.9404 6.1152 6.3855 36.3575 -6.0187 0.1610 -9.4495 0.0000 0.0000 0.0000
-3.4539 38.8560 7.7960 -178.4950 23.7452 -174.4850 0.0000 0.0000 0.0000 -3.5578 0.7161 -13.5273 -3.5208 -6.1862 22.0348 14.1925 -0.1635 -10.3383 0.0000 0.0000 -0.0000 0.0000 0.0000 0.0000 0.4538 0.5815 8.1371 0.2739 0.7163 20.8609 0.0000 0.0000 0.0000 -10.2367 22.2722 -17.6119 0.0000 0.0000 0.0000 -18.3193 -1.6237 1.2769 -60.6913 2.1910 25.2986 -0.5295 -83.6024 8.8661 28.4473 -5.0541 -2.5647 0.0000 0.0000 0.0000 12.6584 0.0618 0.7034 60.7236 5.5609 23.2494 179.4134 70.5733 -175.5306 -18.0775 6.0774 -1.7498 0.0000 0.0000 0.0000 8.9554 -2.1248 -18.6138 5.8948 6.5064 34.7601 -9.3285 0.2360 -9.0485 0.0000 0.0000 0.0000
-3.7216 38.8897 7.5862 -177.5070 24.6991 -173.2770 0.0000 0.0000 0.0000 -3.1487 1.6460 -13.6021 -3.4803 -6.1823 20.3773 14.4164 -0.2241 -9.8620 0.0000 0.0000 -0.0000 0.0000 0.0000 0.0000 0.7129 0.9049 6.8054 0.4273 1.0076 20.8360 0.0000 0.0000 0.0000 -9.9725 22.4400 -17.5659 0.0000 0.0000 0.0000 -17.7574 -1.5244 1.2260 -60.5974 2.3691 27.3398 -0.9984 -84.4951 8.5219 28.3663 -5.0084 -2.5460 0.0000 0.0000 0.0000 12.2526 0.1564 0.7086 60.4292 4.3585 23.4637 179.4351 70.1220 -175.4494 -17.8236 6.0468 -1.7196 0.0000 0.0000 0.0000 9.3420 -0.3928 -17.2864 5.3232 6.3111 32.5848 -13.4510 0.1757 -10.3614 0.0000 0.0000 0.0000
-4.0542 38.8658 7.4003 -177.5020 24.5389 -173.0390 0.0000 0.0000 0.0000 -3.8212 1.6096 -13.5860 -3.3522 -6.1593 20.0938 14.9062 -0.1798 -10.2565 0.0000 0.0000 -0.0000 0.0000 0.0000 0.0000 0.0209 0.7331 6.5202 0.5275 0.6814 20.6303 0.0000 0.0000 0.0000 -9.6974 22.4176 -17.7608 0.0000 0.0000 0.0000 -17.7711 -1.6614 1.2603 -59.3259 1.0395 29.1064 -1.6495 -84.7588 8.0175 28.2613 -4.9246 -2.5157 0.0000 0.0000 0.0000 12.2297 0.2684 0.7295 59.8848 3.8989 23.3373 179.4405 69.8120 -175.4747 -17.6191 5.9853 -1.6900 0.0000 0.0000 0.0000 8.6065 0.8298 -16.1871 4.8680 6.1894 30.4755 -14.4546 -0.0432 -12.2977 0.0000 0.0000 0.0000
-4.4365 38.7524 7.2673 -178.9620 23.1899 -174.3100 0.0000 0.0000 0.0000 -5.8785 -0.4358 -13.7140 -3.0820 -5.4333 22.3845 15.4519 -0.0136 -11.5599 0.0000 0.0000 -0.0000 0.0000 0.0000 0.0000 -2.0671 0.1096 7.9965 0.8465 -0.3355 19.9873 0.0000 0.0000 0.0000 -9.3314 22.1966 -18.2231 0.0000 0.0000 0.0000 -17.9173 -2.1243 1.3805 -57.2675 -1.4663 30.1689 -2.1419 -84.7871 7.5730 28.8232 -4.8086 -2.5401 0.0000 0.0000 0.0000 12.4043 0.3584 0.7530 59.6281 4.1654 23.0140 179.4478 69.9853 -175.3617 -17.5264 5.9429 -1.6746 0.0000 0.0000 0.0000 6.4271 0.6635 -15.3978 4.4301 5.7637 29.6293 -12.5538 -0.1808 -13.7344 0.0000 0.0000 0.0000
-4.7727 38.5299 7.1903 179.0960 21.9550 -176.2480 0.0000 0.0000 0.0000 -8.3279 -2.9888 -14.4396 -2.9723 -4.3179 26.8334 15.7598 0.1584 -12.8347 0.0000 0.0000 -0.0000 0.0000 0.0000 0.0000 -4.6336 -0.2392 10.0385 1.2810 -1.1998 19.6101 0.0000 0.0000 0.0000 -8.9498 21.7013 -18.9131 0.0000 0.0000 0.0000 -17.5790 -2.8315 1.5335 -55.1622 -4.7811 30.2439 -2.5826 -84.8964 7.2577 29.6158 -4.6520 -2.5743 0.0000 0.0000 0.0000 12.2570 0.4425 0.7641 60.3499 4.6528 22.6536 179.4791 70.4456 -175.0250 -17.5927 5.9378 -1.6805 0.0000 0.0000 0.0000 3.8925 0.2649 -14.8460 4.0284 5.0276 30.4575 -10.8259 -0.2357 -14.7494 0.0000 0.0000 0.0000
